<mxfile host="65bd71144e">
    <diagram id="LbyR46Ca2X4h6mD91lyc" name="Search Product">
        <mxGraphModel dx="1754" dy="2808" grid="1" gridSize="10" guides="1" tooltips="1" connect="1" arrows="1" fold="1" page="1" pageScale="1" pageWidth="850" pageHeight="2000" math="0" shadow="0">
            <root>
                <mxCell id="0"/>
                <mxCell id="1" parent="0"/>
                <mxCell id="32" value="" style="group" vertex="1" connectable="0" parent="1">
                    <mxGeometry x="200" y="-1950" width="480" height="645" as="geometry"/>
                </mxCell>
                <mxCell id="31" value="" style="group" vertex="1" connectable="0" parent="32">
                    <mxGeometry width="480" height="645" as="geometry"/>
                </mxCell>
                <mxCell id="23" value="" style="rounded=0;whiteSpace=wrap;html=1;" vertex="1" parent="31">
                    <mxGeometry y="15" width="480" height="630" as="geometry"/>
                </mxCell>
                <mxCell id="25" value="&lt;font style=&quot;font-size: 20px&quot;&gt;On Load Form_Modify_Product&lt;/font&gt;" style="text;html=1;strokeColor=none;fillColor=none;align=center;verticalAlign=middle;whiteSpace=wrap;rounded=0;fontSize=20;" vertex="1" parent="31">
                    <mxGeometry width="210" height="110" as="geometry"/>
                </mxCell>
                <mxCell id="30" value="" style="group" vertex="1" connectable="0" parent="32">
                    <mxGeometry x="80" y="90" width="370" height="520" as="geometry"/>
                </mxCell>
                <mxCell id="2" value="Filtered Product List&lt;br&gt;EMPTY" style="ellipse;whiteSpace=wrap;html=1;" vertex="1" parent="30">
                    <mxGeometry x="125" width="120" height="120" as="geometry"/>
                </mxCell>
                <mxCell id="10" value="" style="group" vertex="1" connectable="0" parent="30">
                    <mxGeometry y="160" width="370" height="200" as="geometry"/>
                </mxCell>
                <mxCell id="6" value="" style="rounded=0;whiteSpace=wrap;html=1;" vertex="1" parent="10">
                    <mxGeometry width="370" height="200" as="geometry"/>
                </mxCell>
                <mxCell id="3" value="Filtered Product List&lt;br&gt;EMPTY" style="ellipse;whiteSpace=wrap;html=1;" vertex="1" parent="10">
                    <mxGeometry x="190" y="40" width="120" height="120" as="geometry"/>
                </mxCell>
                <mxCell id="5" style="edgeStyle=orthogonalEdgeStyle;rounded=0;orthogonalLoop=1;jettySize=auto;html=1;entryX=0;entryY=0.5;entryDx=0;entryDy=0;" edge="1" parent="10" source="4" target="3">
                    <mxGeometry relative="1" as="geometry"/>
                </mxCell>
                <mxCell id="4" value="Cached&lt;br&gt;Product&lt;br&gt;List" style="shape=cylinder3;whiteSpace=wrap;html=1;boundedLbl=1;backgroundOutline=1;size=15;" vertex="1" parent="10">
                    <mxGeometry x="50" y="60" width="60" height="80" as="geometry"/>
                </mxCell>
                <mxCell id="8" value="Load FPD" style="text;html=1;strokeColor=none;fillColor=none;align=center;verticalAlign=middle;whiteSpace=wrap;rounded=0;" vertex="1" parent="10">
                    <mxGeometry x="260" y="170" width="70" height="20" as="geometry"/>
                </mxCell>
                <mxCell id="7" style="edgeStyle=orthogonalEdgeStyle;rounded=0;orthogonalLoop=1;jettySize=auto;html=1;entryX=0.5;entryY=0;entryDx=0;entryDy=0;" edge="1" parent="30" source="2" target="6">
                    <mxGeometry relative="1" as="geometry"/>
                </mxCell>
                <mxCell id="18" value="Filtered Product List&lt;br&gt;FULL" style="ellipse;whiteSpace=wrap;html=1;" vertex="1" parent="30">
                    <mxGeometry x="125" y="400" width="120" height="120" as="geometry"/>
                </mxCell>
                <mxCell id="19" style="edgeStyle=orthogonalEdgeStyle;rounded=0;orthogonalLoop=1;jettySize=auto;html=1;" edge="1" parent="30" source="6" target="18">
                    <mxGeometry relative="1" as="geometry"/>
                </mxCell>
                <mxCell id="rrK-cHI3rAX0xC4a9ShG-53" value="" style="group" vertex="1" connectable="0" parent="1">
                    <mxGeometry x="60" y="-1220" width="730" height="1120" as="geometry"/>
                </mxCell>
                <mxCell id="11" value="" style="group" vertex="1" connectable="0" parent="rrK-cHI3rAX0xC4a9ShG-53">
                    <mxGeometry x="170" y="160" width="370" height="200" as="geometry"/>
                </mxCell>
                <mxCell id="12" value="" style="rounded=0;whiteSpace=wrap;html=1;" vertex="1" parent="11">
                    <mxGeometry width="370" height="200" as="geometry"/>
                </mxCell>
                <mxCell id="13" value="Filtered Product List&lt;br&gt;FULL" style="ellipse;whiteSpace=wrap;html=1;" vertex="1" parent="11">
                    <mxGeometry x="190" y="40" width="120" height="120" as="geometry"/>
                </mxCell>
                <mxCell id="16" value="Filtering" style="text;html=1;strokeColor=none;fillColor=none;align=center;verticalAlign=middle;whiteSpace=wrap;rounded=0;" vertex="1" parent="11">
                    <mxGeometry x="260" y="170" width="70" height="20" as="geometry"/>
                </mxCell>
                <mxCell id="20" style="edgeStyle=orthogonalEdgeStyle;rounded=0;orthogonalLoop=1;jettySize=auto;html=1;entryX=0;entryY=0.5;entryDx=0;entryDy=0;" edge="1" parent="11" source="17" target="13">
                    <mxGeometry relative="1" as="geometry"/>
                </mxCell>
                <mxCell id="17" value="Filter with all datalists as parameters&lt;br&gt;( valid filtering parameter:&amp;nbsp; cannot be &quot;&quot; or 0)" style="shape=document;whiteSpace=wrap;html=1;boundedLbl=1;" vertex="1" parent="11">
                    <mxGeometry x="10" y="35" width="140" height="130" as="geometry"/>
                </mxCell>
                <mxCell id="29" style="edgeStyle=orthogonalEdgeStyle;rounded=0;orthogonalLoop=1;jettySize=auto;html=1;entryX=0.5;entryY=0;entryDx=0;entryDy=0;" edge="1" parent="rrK-cHI3rAX0xC4a9ShG-53" source="26" target="12">
                    <mxGeometry relative="1" as="geometry"/>
                </mxCell>
                <mxCell id="26" value="Editing Datalist" style="rounded=0;whiteSpace=wrap;html=1;" vertex="1" parent="rrK-cHI3rAX0xC4a9ShG-53">
                    <mxGeometry x="295" y="40" width="120" height="60" as="geometry"/>
                </mxCell>
                <mxCell id="27" value="Disable other&lt;br&gt;DataList" style="ellipse;whiteSpace=wrap;html=1;" vertex="1" parent="rrK-cHI3rAX0xC4a9ShG-53">
                    <mxGeometry x="480" y="20" width="100" height="100" as="geometry"/>
                </mxCell>
                <mxCell id="28" style="edgeStyle=orthogonalEdgeStyle;rounded=0;orthogonalLoop=1;jettySize=auto;html=1;" edge="1" parent="rrK-cHI3rAX0xC4a9ShG-53" source="26" target="27">
                    <mxGeometry relative="1" as="geometry"/>
                </mxCell>
                <mxCell id="33" value="Is Filtering Successful" style="rhombus;whiteSpace=wrap;html=1;" vertex="1" parent="rrK-cHI3rAX0xC4a9ShG-53">
                    <mxGeometry x="315" y="410" width="80" height="80" as="geometry"/>
                </mxCell>
                <mxCell id="35" style="edgeStyle=orthogonalEdgeStyle;rounded=0;orthogonalLoop=1;jettySize=auto;html=1;" edge="1" parent="rrK-cHI3rAX0xC4a9ShG-53" source="12" target="33">
                    <mxGeometry relative="1" as="geometry"/>
                </mxCell>
                <mxCell id="36" value="Filtered Product List&lt;br&gt;Partial" style="ellipse;whiteSpace=wrap;html=1;" vertex="1" parent="rrK-cHI3rAX0xC4a9ShG-53">
                    <mxGeometry x="530" y="600" width="120" height="120" as="geometry"/>
                </mxCell>
                <mxCell id="37" value="Filtered Product List&lt;br&gt;Single" style="ellipse;whiteSpace=wrap;html=1;" vertex="1" parent="rrK-cHI3rAX0xC4a9ShG-53">
                    <mxGeometry x="295" y="600" width="120" height="120" as="geometry"/>
                </mxCell>
                <mxCell id="42" style="edgeStyle=orthogonalEdgeStyle;rounded=0;orthogonalLoop=1;jettySize=auto;html=1;exitX=0;exitY=0.5;exitDx=0;exitDy=0;" edge="1" parent="rrK-cHI3rAX0xC4a9ShG-53" source="38" target="37">
                    <mxGeometry relative="1" as="geometry"/>
                </mxCell>
                <mxCell id="43" style="edgeStyle=orthogonalEdgeStyle;rounded=0;orthogonalLoop=1;jettySize=auto;html=1;exitX=1;exitY=0.5;exitDx=0;exitDy=0;" edge="1" parent="rrK-cHI3rAX0xC4a9ShG-53" source="38" target="36">
                    <mxGeometry relative="1" as="geometry"/>
                </mxCell>
                <mxCell id="38" value="One Or Many" style="rhombus;whiteSpace=wrap;html=1;" vertex="1" parent="rrK-cHI3rAX0xC4a9ShG-53">
                    <mxGeometry x="440" y="510" width="80" height="80" as="geometry"/>
                </mxCell>
                <mxCell id="41" style="edgeStyle=orthogonalEdgeStyle;rounded=0;orthogonalLoop=1;jettySize=auto;html=1;entryX=0.5;entryY=0;entryDx=0;entryDy=0;" edge="1" parent="rrK-cHI3rAX0xC4a9ShG-53" source="33" target="38">
                    <mxGeometry relative="1" as="geometry"/>
                </mxCell>
                <mxCell id="50" style="edgeStyle=orthogonalEdgeStyle;rounded=0;orthogonalLoop=1;jettySize=auto;html=1;exitX=0.5;exitY=1;exitDx=0;exitDy=0;entryX=0.25;entryY=0;entryDx=0;entryDy=0;" edge="1" parent="rrK-cHI3rAX0xC4a9ShG-53" source="39" target="26">
                    <mxGeometry relative="1" as="geometry">
                        <Array as="points">
                            <mxPoint x="140" y="770"/>
                            <mxPoint y="770"/>
                            <mxPoint/>
                            <mxPoint x="325"/>
                        </Array>
                    </mxGeometry>
                </mxCell>
                <mxCell id="39" value="Filtered Product List&lt;br&gt;Empty" style="ellipse;whiteSpace=wrap;html=1;" vertex="1" parent="rrK-cHI3rAX0xC4a9ShG-53">
                    <mxGeometry x="80" y="600" width="120" height="120" as="geometry"/>
                </mxCell>
                <mxCell id="40" style="edgeStyle=orthogonalEdgeStyle;rounded=0;orthogonalLoop=1;jettySize=auto;html=1;" edge="1" parent="rrK-cHI3rAX0xC4a9ShG-53" source="33" target="39">
                    <mxGeometry relative="1" as="geometry"/>
                </mxCell>
                <mxCell id="45" value="Enable other Datalist&lt;br&gt;Elegible for search" style="ellipse;whiteSpace=wrap;html=1;" vertex="1" parent="rrK-cHI3rAX0xC4a9ShG-53">
                    <mxGeometry x="530" y="760" width="120" height="120" as="geometry"/>
                </mxCell>
                <mxCell id="47" style="edgeStyle=orthogonalEdgeStyle;rounded=0;orthogonalLoop=1;jettySize=auto;html=1;entryX=0.5;entryY=0;entryDx=0;entryDy=0;" edge="1" parent="rrK-cHI3rAX0xC4a9ShG-53" source="36" target="45">
                    <mxGeometry relative="1" as="geometry"/>
                </mxCell>
                <mxCell id="49" style="edgeStyle=orthogonalEdgeStyle;rounded=0;orthogonalLoop=1;jettySize=auto;html=1;entryX=0.75;entryY=0;entryDx=0;entryDy=0;" edge="1" parent="rrK-cHI3rAX0xC4a9ShG-53" source="46" target="26">
                    <mxGeometry relative="1" as="geometry">
                        <Array as="points">
                            <mxPoint x="730" y="950"/>
                            <mxPoint x="730"/>
                            <mxPoint x="385"/>
                        </Array>
                    </mxGeometry>
                </mxCell>
                <mxCell id="46" value="Select Other Datalist" style="rounded=0;whiteSpace=wrap;html=1;" vertex="1" parent="rrK-cHI3rAX0xC4a9ShG-53">
                    <mxGeometry x="530" y="920" width="120" height="60" as="geometry"/>
                </mxCell>
                <mxCell id="48" style="edgeStyle=orthogonalEdgeStyle;rounded=0;orthogonalLoop=1;jettySize=auto;html=1;" edge="1" parent="rrK-cHI3rAX0xC4a9ShG-53" source="45" target="46">
                    <mxGeometry relative="1" as="geometry"/>
                </mxCell>
                <mxCell id="53" value="Enable Modify &lt;br&gt;Button" style="ellipse;whiteSpace=wrap;html=1;" vertex="1" parent="rrK-cHI3rAX0xC4a9ShG-53">
                    <mxGeometry x="295" y="1000" width="120" height="120" as="geometry"/>
                </mxCell>
                <mxCell id="52" style="edgeStyle=orthogonalEdgeStyle;rounded=0;orthogonalLoop=1;jettySize=auto;html=1;" edge="1" parent="rrK-cHI3rAX0xC4a9ShG-53" source="37" target="53">
                    <mxGeometry relative="1" as="geometry">
                        <mxPoint x="355" y="810" as="targetPoint"/>
                    </mxGeometry>
                </mxCell>
                <mxCell id="rrK-cHI3rAX0xC4a9ShG-54" style="edgeStyle=orthogonalEdgeStyle;rounded=0;orthogonalLoop=1;jettySize=auto;html=1;exitX=0.5;exitY=1;exitDx=0;exitDy=0;" edge="1" parent="1" source="23" target="26">
                    <mxGeometry relative="1" as="geometry"/>
                </mxCell>
            </root>
        </mxGraphModel>
    </diagram>
    <diagram id="iA6SGUSFqseeWwlcZyWM" name="Modify Product">
        <mxGraphModel dx="2506" dy="1154" grid="1" gridSize="10" guides="1" tooltips="1" connect="1" arrows="1" fold="1" page="1" pageScale="1" pageWidth="850" pageHeight="11000" math="0" shadow="0">
            <root>
                <mxCell id="LCz8YGrdrxsspOYJYs8G-0"/>
                <mxCell id="LCz8YGrdrxsspOYJYs8G-1" parent="LCz8YGrdrxsspOYJYs8G-0"/>
            </root>
        </mxGraphModel>
    </diagram>
</mxfile>